<svg xmlns="http://www.w3.org/2000/svg" viewBox="0 0 600 600" width="100%" height="100%">
  <rect width="600" height="600" fill="#0f172a"/>
  <rect x="30" y="30" width="540" height="540" fill="none" stroke="#d97706" stroke-width="3"/>
  <rect x="42" y="42" width="516" height="516" fill="none" stroke="#f59e0b" stroke-width="1.5" stroke-dasharray="10 5"/>
  <text x="300" y="85" fill="#f59e0b" font-family="'Times New Roman', serif" font-size="13" font-weight="700" text-anchor="middle" letter-spacing="5">THE VIBE CODE MAGAZINE • VOL. I</text>
  <text x="300" y="160" fill="#334155" font-family="'Times New Roman', serif" font-size="86" font-weight="900" text-anchor="middle" letter-spacing="-3">ELDER</text>
  <g transform="translate(50, 40)">
    <g fill="none" stroke="#ffffff" stroke-width="2.5">
      <circle cx="200" cy="160" r="44"/>
      <circle cx="250" cy="125" r="50"/>
      <circle cx="300" cy="110" r="54"/>
      <circle cx="355" cy="125" r="50"/>
      <circle cx="410" cy="160" r="44"/>
    </g>
    <rect x="180" y="200" width="240" height="54" fill="#000000" stroke="#f59e0b" stroke-width="3"/>
    <text x="300" y="235" fill="#f59e0b" font-family="'Times New Roman', serif" font-size="20" font-style="italic" text-anchor="middle">Vibe Coder</text>
    <path d="M 180 270 C 150 320, 155 420, 210 450 C 250 470, 350 470, 390 450 C 445 420, 450 320, 420 270 Z" fill="none" stroke="#ffffff" stroke-width="3"/>
  </g>
  <text x="300" y="525" fill="#ffffff" font-family="'Times New Roman', serif" font-size="24" font-style="italic" text-anchor="middle">"Wisdom in Experience, Speed in Code."</text>
  <text x="300" y="555" fill="#f59e0b" font-family="sans-serif" font-size="13" font-weight="700" text-anchor="middle" letter-spacing="4">ELDERVIBE.DEV</text>
</svg>