<svg xmlns="http://www.w3.org/2000/svg" viewBox="0 0 600 600" width="100%" height="100%">
  <rect width="600" height="600" fill="#0f172a"/>
  <g fill="#ffffff">
    <rect x="220" y="100" width="160" height="24"/>
    <rect x="170" y="124" width="260" height="24"/>
    <rect x="140" y="148" width="320" height="36"/>
    <rect x="120" y="184" width="60" height="48"/>
    <rect x="420" y="184" width="60" height="48"/>
  </g>
  <rect x="180" y="220" width="240" height="100" fill="#ffedd5"/>
  <rect x="160" y="220" width="280" height="48" fill="#000000"/>
  <rect x="190" y="232" width="96" height="24" fill="#00f2fe"/>
  <rect x="314" y="232" width="96" height="24" fill="#00f2fe"/>
  <g fill="#ffffff">
    <rect x="160" y="320" width="280" height="36"/>
    <rect x="184" y="356" width="232" height="48"/>
    <rect x="208" y="404" width="184" height="48"/>
    <rect x="232" y="452" width="136" height="36"/>
    <rect x="268" y="488" width="64" height="24"/>
  </g>
  <text x="300" y="550" fill="#39d353" font-family="monospace" font-size="18" font-weight="900" text-anchor="middle">&lt;8BIT_ARCADE_ELDER_VIBE/&gt;</text>
</svg>