<svg xmlns="http://www.w3.org/2000/svg" viewBox="0 0 500 500" width="100%" height="100%">
  <rect width="500" height="500" rx="50" fill="#180b2b"/>
  <circle cx="250" cy="250" r="200" fill="none" stroke="#38bdf8" stroke-width="8"/>
  <g transform="translate(250, 240)">
    <path d="M -90 -70 C -110 -110, -60 -150, -20 -130 C 0 -160, 40 -150, 50 -120 C 90 -140, 120 -100, 90 -60 Z" fill="#f472b6"/>
    <path d="M -80 -50 L 80 -50 L 65 10 Q 0 30 -65 10 Z" fill="#c084fc" stroke="#38bdf8" stroke-width="5"/>
    <text x="-35" y="-15" fill="#38bdf8" font-family="sans-serif" font-size="32" font-weight="900">E</text>
    <text x="10" y="-15" fill="#f472b6" font-family="sans-serif" font-size="32" font-weight="900">V</text>
    <path d="M -75 25 C -95 85, -40 145, 0 160 C 40 145, 95 85, 75 25 Z" fill="#f472b6" stroke="#38bdf8" stroke-width="3"/>
  </g>
  <text x="250" y="445" fill="#38bdf8" font-family="monospace" font-size="18" font-weight="900" text-anchor="middle">&lt;Y2K_EV/&gt;</text>
</svg>